<svg width="24" height="24" viewBox="0 0 24 24" fill="none" xmlns="http://www.w3.org/2000/svg">
<path d="M10.0465 16.4463C9.85121 16.6415 9.85121 16.9581 10.0465 17.1534C10.2417 17.3486 10.5583 17.3486 10.7536 17.1534L10.0465 16.4463ZM15.2 11.9998L15.5536 12.3534L15.9071 11.9998L15.5536 11.6463L15.2 11.9998ZM10.7536 6.84625C10.5583 6.65099 10.2417 6.65099 10.0465 6.84625C9.85121 7.04151 9.85121 7.3581 10.0465 7.55336L10.7536 6.84625ZM10.7536 17.1534L15.5536 12.3534L14.8465 11.6463L10.0465 16.4463L10.7536 17.1534ZM15.5536 11.6463L10.7536 6.84625L10.0465 7.55336L14.8465 12.3534L15.5536 11.6463Z" fill="#90A0B7"/>
</svg>
