<svg width="24" height="24" viewBox="0 0 24 24" fill="none" xmlns="http://www.w3.org/2000/svg">
<path d="M10.8965 14.0478L19.4701 18.3469C18.788 19.4234 17.9048 20.3624 16.8659 21.1109C15.5554 22.0552 14.0358 22.6684 12.437 22.8982C10.8381 23.128 9.20743 22.9675 7.68402 22.4305C6.16061 21.8935 4.78973 20.9959 3.68837 19.8144C2.58701 18.6328 1.78787 17.2023 1.35913 15.6449C0.930401 14.0876 0.884809 12.4496 1.22625 10.8709C1.56769 9.29207 2.28602 7.81933 3.31995 6.57831C4.1396 5.5945 5.13829 4.77946 6.25996 4.17455L9.94667 13.0287C10.1309 13.4713 10.468 13.8329 10.8965 14.0478ZM12.0437 8.53842L9.05743 1.44215C10.0655 1.13221 11.1182 0.982858 12.1769 1.00156C13.2355 1.02027 14.2824 1.20672 15.2788 1.55208L12.0437 8.53842ZM18.0548 3.59221C18.9245 4.10257 19.7139 4.74239 20.3949 5.49126C21.301 6.48767 21.9969 7.65666 22.4407 8.92826C22.8845 10.1999 23.0673 11.5479 22.978 12.8918C22.9108 13.9018 22.6911 14.8938 22.3279 15.8345L14.2979 11.7704L18.0548 3.59221Z" stroke="#90A0B7" stroke-width="2" stroke-linejoin="round"/>
</svg>
