<svg width="86" height="86" viewBox="0 0 86 86" fill="none" xmlns="http://www.w3.org/2000/svg">
<path fill-rule="evenodd" clip-rule="evenodd" d="M3.5835 28.6673C3.5835 26.6883 5.18781 25.084 7.16683 25.084H28.6668C29.8649 25.084 30.9838 25.6828 31.6483 26.6796L37.7512 35.834H48.2491L54.352 26.6796C55.0166 25.6828 56.1354 25.084 57.3335 25.084H78.8335C80.8125 25.084 82.4168 26.6883 82.4168 28.6673C82.4168 30.6463 80.8125 32.2507 78.8335 32.2507H59.2512L53.1483 41.405C52.4838 42.4019 51.3649 43.0007 50.1668 43.0007H35.8335C34.6354 43.0007 33.5166 42.4019 32.852 41.405L26.7491 32.2507H7.16683C5.18781 32.2507 3.5835 30.6463 3.5835 28.6673Z" fill="#C2CFE0"/>
<path fill-rule="evenodd" clip-rule="evenodd" d="M22.3599 10.75L63.6399 10.75C65.6399 10.7511 67.6018 11.31 69.3015 12.364C69.9833 12.7868 70.7941 13.5627 71.3362 14.0909C72.0013 14.7389 72.7557 15.5139 73.4525 16.2439C74.1535 16.9782 74.8157 17.6874 75.3015 18.2117C75.5448 18.4742 75.7448 18.6915 75.8845 18.8436L76.0469 19.0208L76.1049 19.0843C76.182 19.1689 76.2563 19.2585 76.3249 19.35L81.6999 26.5167C82.1651 27.1369 82.4166 27.8913 82.4166 28.6667V64.5C82.4166 67.3511 81.284 70.0854 79.268 72.1014C77.252 74.1174 74.5177 75.25 71.6666 75.25H14.3333C11.4822 75.25 8.74787 74.1174 6.73185 72.1014C4.71584 70.0854 3.58325 67.3511 3.58325 64.5V28.6667C3.58325 27.8913 3.83472 27.1369 4.29992 26.5167L9.67492 19.35C9.74354 19.2585 9.8165 19.1704 9.89355 19.0858L9.95299 19.0208L10.1153 18.8436C10.255 18.6915 10.4551 18.4742 10.6984 18.2117C11.1841 17.6874 11.8464 16.9782 12.5473 16.2439C13.2441 15.5139 13.9985 14.7389 14.6636 14.0909C15.2057 13.5627 16.0165 12.7868 16.6984 12.364C18.3981 11.31 20.36 10.7511 22.3599 10.75ZM15.3032 23.7901L10.7499 29.8611V64.5C10.7499 65.4504 11.1274 66.3618 11.7995 67.0338C12.4715 67.7058 13.3829 68.0833 14.3333 68.0833H71.6666C72.6169 68.0833 73.5284 67.7058 74.2004 67.0338C74.8724 66.3618 75.2499 65.4504 75.2499 64.5V29.8611L70.6967 23.7901L70.6055 23.6906C70.4721 23.5453 70.2795 23.3362 70.0446 23.0826C69.5739 22.5746 68.9373 21.8929 68.2686 21.1924C67.5957 20.4876 66.9096 19.7838 66.335 19.224C65.934 18.8333 65.6882 18.614 65.5735 18.5116C65.4886 18.4359 65.4755 18.4243 65.5246 18.4547C64.9582 18.1035 64.3051 17.9171 63.6387 17.9167H22.3611C21.6947 17.9171 21.0416 18.1035 20.4753 18.4547C20.5243 18.4243 20.5112 18.4359 20.4264 18.5116C20.3117 18.614 20.0658 18.8333 19.6649 19.224C19.0902 19.7838 18.4041 20.4876 17.7313 21.1924C17.0626 21.8929 16.4259 22.5746 15.9553 23.0826C15.7203 23.3362 15.5278 23.5453 15.3944 23.6906L15.3032 23.7901Z" fill="#C2CFE0"/>
<path fill-rule="evenodd" clip-rule="evenodd" d="M43 45.1504C43.7916 45.1504 44.4333 45.7921 44.4333 46.5837V60.9171C44.4333 61.7087 43.7916 62.3504 43 62.3504C42.2084 62.3504 41.5667 61.7087 41.5667 60.9171V46.5837C41.5667 45.7921 42.2084 45.1504 43 45.1504Z" fill="#C2CFE0"/>
<path fill-rule="evenodd" clip-rule="evenodd" d="M37.2089 57.5155C37.7686 56.9558 38.6762 56.9558 39.2359 57.5155L43.0002 61.2798L46.7644 57.5155C47.3242 56.9558 48.2317 56.9558 48.7915 57.5155C49.3512 58.0753 49.3512 58.9828 48.7915 59.5426L44.0137 64.3203C43.4539 64.8801 42.5464 64.8801 41.9867 64.3203L37.2089 59.5426C36.6491 58.9828 36.6491 58.0753 37.2089 57.5155Z" fill="#C2CFE0"/>
</svg>
