<svg width="300" height="103" viewBox="0 0 300 103" fill="none" xmlns="http://www.w3.org/2000/svg">
<g clip-path="url(#clip0_96_11739)">
<path d="M57.3549 24.9613C58.7714 20.1134 59.7156 16.8626 60.9526 12.9004C53.7903 11.4399 52.2984 11.2656 46.1181 11.2656C37.6479 11.2656 30.4085 12.6633 24.3997 15.4587C18.5962 18.0809 13.4595 21.9747 9.37161 26.8506C5.53073 31.354 2.79398 36.6884 1.37832 42.4308C1.12952 43.4594 0.935673 44.5005 0.797588 45.5496C0.468669 47.7693 0.413174 50.0207 0.63234 52.2538C0.845062 55.1506 1.71355 57.9616 3.17244 60.475C4.61433 62.8353 6.69206 64.7438 9.16859 65.9825C11.7606 67.3252 14.2441 67.867 17.7851 68.503C21.3261 69.139 25.4432 69.1626 29.2769 69.1626C31.3071 69.1626 33.8519 68.9459 36.4062 68.7763C35.5611 71.7774 31.614 85.3977 29.7963 91.7249L37.7565 91.6496L48.8659 91.5224L61.2312 91.3763C65.1405 91.3292 67.8742 91.2962 69.4039 91.0654C71.3507 90.7416 73.2524 90.1897 75.0696 89.4211C78.8147 87.9107 81.964 85.2229 84.0402 81.7653C85.176 79.9439 86.0068 77.95 86.5 75.862C86.8545 74.4492 86.9946 72.9914 86.9155 71.5371C86.8599 70.2525 86.5384 68.9933 85.9712 67.8387C85.4655 66.7957 84.7409 65.8734 83.8466 65.1345C83.0907 64.4921 82.2383 63.9722 81.3206 63.5939C80.2191 63.2113 79.0842 62.9321 77.9307 62.76C79.2466 62.4343 80.5398 62.0235 81.8022 61.5303C85.6703 59.8646 88.8404 56.9128 90.7729 53.1772C91.0042 52.7438 91.2025 52.315 91.4055 51.8675C91.845 50.8331 92.1941 49.7628 92.4489 48.6685C92.9215 46.8222 93.0242 44.901 92.7511 43.015C92.5435 41.5715 91.977 40.2029 91.1033 39.0339C90.244 38.0269 89.1718 37.2224 87.9636 36.6783C86.4282 35.9917 84.7959 35.5452 83.1242 35.3544C81.6795 35.1707 40.6838 35.8256 38.1767 35.8538C37.6574 37.6394 37.2891 39.0528 36.9728 40.094C36.6564 41.1352 36.4393 41.9172 36.2929 42.4496L34.7773 47.4813L42.5818 47.3918C42.1852 48.8994 39.7489 57.2383 39.7489 57.2383H30.9011C27.8794 57.2383 25.7501 57.1064 23.5593 55.9427C22.5444 55.4397 21.6478 54.7278 20.9284 53.8541C20.2091 52.9803 19.6833 51.9645 19.3856 50.8734C18.9964 49.3463 18.8797 47.7626 19.041 46.1951C19.124 45.2171 19.2819 44.2469 19.5131 43.2929C20.192 40.4799 21.331 37.7978 22.8842 35.3544C24.4721 32.8507 26.5078 30.6596 28.8898 28.8905C31.3217 27.075 34.0636 25.7149 36.9822 24.8765C39.946 24.0167 43.0174 23.582 46.1039 23.5856C47.2843 23.5856 48.6125 23.6516 50.0888 23.7835C51.5665 23.9154 53.1152 24.1321 54.7251 24.429L57.3549 24.9613ZM69.4936 73.9634C69.2609 74.9846 68.8381 75.953 68.2472 76.8184C67.711 77.6227 67.0172 78.3102 66.2075 78.8396C65.2396 79.4121 64.1835 79.8212 63.082 80.0504C61.4874 80.3383 59.8671 80.4598 58.2473 80.4132H50.1076L53.5259 68.5643L62.5626 68.5124C63.9063 68.4637 65.2511 68.568 66.5711 68.8234C67.3293 68.9776 68.034 69.3268 68.6154 69.8363C69.1179 70.2918 69.4605 70.8962 69.5928 71.5606C69.7405 72.3589 69.7066 73.18 69.4936 73.9634ZM71.7929 55.4151C71.0928 55.9718 70.2911 56.3878 69.4322 56.64C68.5973 56.8287 67.7473 56.9438 66.8921 56.9839C66.0281 57.0687 64.6967 57.0358 62.7184 57.0358L56.8403 57.1017C57.0858 56.2395 59.1538 48.9512 59.6731 47.208L66.5616 47.1279C68.8185 47.1279 73.0818 46.6003 74.2386 48.5978C74.7107 49.3988 74.5927 50.44 74.3614 51.4717C74.1629 52.1798 73.8572 52.8534 73.4548 53.4693C73.2929 53.762 73.1049 54.0395 72.893 54.2985C72.572 54.713 72.2027 55.0878 71.7929 55.4151Z" fill="#F4A519"/>
<path d="M128.029 51.5386C127.906 52.0946 127.807 52.5233 127.75 52.8201L127.179 55.3359H129.332C129.512 55.3359 130.092 55.3359 131.07 55.4019H131.362C131.207 56.2217 130.182 60.8246 130.182 60.8246L126.698 60.8905C126.254 60.9235 125.824 60.8905 125.418 60.8905C124.905 60.8911 124.392 60.8549 123.884 60.7822C123.007 60.7443 122.149 60.5194 121.367 60.1226C120.723 59.803 120.155 59.3501 119.701 58.794C119.276 58.3198 118.955 57.7633 118.756 57.1592C118.36 55.8104 118.302 54.3851 118.586 53.0086C118.856 51.481 119.385 50.0105 120.149 48.66C120.914 47.2941 121.938 46.0906 123.166 45.1172C124.416 44.1236 125.846 43.3784 127.377 42.9217C128.948 42.4462 130.58 42.2064 132.222 42.2103C132.859 42.2103 133.572 42.248 134.37 42.3234C135.168 42.3987 135.999 42.5165 136.867 42.672C137.486 42.7851 138.043 42.9076 138.544 43.0348C139.082 40.5755 139.459 38.8606 139.96 36.8017C136.027 36.0102 135.239 35.916 131.863 35.916C127.274 35.916 123.402 36.6745 120.248 38.1916C117.221 39.6005 114.578 41.7157 112.543 44.3586C110.623 46.8247 109.341 49.7241 108.808 52.8013C108.71 53.3609 108.644 53.9256 108.61 54.4926C108.586 54.7894 108.577 55.0862 108.568 55.383C108.568 55.4302 108.568 55.4773 108.568 55.5244C108.568 55.7364 108.568 55.9437 108.568 56.151C108.568 56.2593 108.568 56.3724 108.568 56.4808C108.568 56.6834 108.591 56.8812 108.61 57.0791C108.61 57.1404 108.61 57.2016 108.61 57.2628C108.638 57.5173 108.671 57.7764 108.714 58.0308C108.742 58.1957 108.775 58.3512 108.808 58.5019C108.86 58.7657 108.912 59.0343 108.974 59.284C109.016 59.4442 109.068 59.5902 109.115 59.7551C109.186 59.9907 109.252 60.2262 109.337 60.4524C109.394 60.6079 109.465 60.7492 109.526 60.9C109.587 61.0507 109.701 61.324 109.805 61.5218C109.908 61.7197 109.979 61.8375 110.069 61.993C110.159 62.1484 110.267 62.351 110.381 62.5206C110.494 62.6902 110.527 62.7374 110.602 62.841L110.645 62.9023C111.454 63.969 112.497 64.8362 113.695 65.4369C114.409 65.8005 115.151 66.1061 115.914 66.3509C116.811 66.5942 117.72 66.7876 118.638 66.9304C120.709 67.2168 122.799 67.3381 124.889 67.2932C125.989 67.2932 127.349 67.3591 128.728 67.2932C128.728 67.378 128.751 67.1754 128.728 67.2932C128.846 67.2932 132.033 67.1518 133.204 67.0105C134.375 66.8692 135.852 66.6383 137.646 66.3179C138.034 64.3863 138.663 61.5266 139.535 57.7387C140.388 54.0168 141.095 51.1272 141.655 49.0699C135.578 49.15 129.139 49.249 128.435 49.2631C128.308 50.2053 128.161 50.9686 128.029 51.5386Z" fill="#F4A519"/>
<path d="M166.57 60.1181C166.211 61.0227 165.446 63.2103 164.275 66.681C162.456 67.0296 160.94 67.2604 159.728 67.3735C158.515 67.4866 157.292 67.5431 156.069 67.5431C154.426 67.5547 152.786 67.4287 151.164 67.1662C149.861 66.9795 148.61 66.5307 147.486 65.8471C146.537 65.2497 145.738 64.444 145.149 63.4914C144.545 62.4635 144.172 61.3176 144.053 60.1323C143.894 58.7986 143.937 57.4486 144.181 56.1277C144.55 54.1279 145.281 52.2121 146.339 50.4741C147.284 48.7906 148.559 47.3135 150.087 46.1303C151.462 45.1015 153.024 44.348 154.686 43.9113C156.316 43.4785 157.995 43.2584 159.681 43.2564C161.309 43.2435 162.931 43.4447 164.506 43.8548C165.885 44.1881 167.137 44.915 168.109 45.9466C168.995 46.8846 169.596 48.0544 169.842 49.3199C170.08 50.6609 170.07 52.034 169.813 53.3716C169.63 54.3511 169.362 55.3128 169.011 56.2455H153.104C153.048 56.4857 153 56.7166 152.967 56.8956C152.678 58.5194 153.049 59.7145 154.082 60.4809C155.273 61.2966 156.699 61.7003 158.142 61.6305C159.308 61.6135 160.471 61.4969 161.617 61.2818C162.945 61.062 164.596 60.6741 166.57 60.1181ZM153.907 52.8062H161.395C161.456 52.5471 161.504 52.3351 161.532 52.1466C161.677 51.4811 161.656 50.7904 161.471 50.1349C161.317 49.6122 160.962 49.1716 160.484 48.91C159.961 48.643 159.38 48.5103 158.794 48.5237C158.333 48.5262 157.876 48.5993 157.439 48.7404C156.989 48.8843 156.565 49.099 156.183 49.3764C155.8 49.6411 155.457 49.9583 155.163 50.3187C154.896 50.6421 154.666 50.9945 154.478 51.3693C154.258 51.8361 154.068 52.316 153.907 52.8062Z" fill="#F4A519"/>
<path d="M188.453 60.296C187.959 61.5524 187.506 62.7899 187.093 64.0085L186.107 66.7693C184.533 67.1022 183.327 67.3143 182.49 67.4053C181.671 67.4934 180.849 67.539 180.026 67.542C178.895 67.5561 177.766 67.4455 176.659 67.2122C175.796 67.0445 175.001 66.6266 174.374 66.0108C173.832 65.4688 173.479 64.7666 173.368 64.0085C173.26 63.211 173.281 62.4014 173.43 61.6105C173.453 61.4597 173.51 61.1912 173.59 60.8048C173.671 60.4185 173.878 59.5658 174.204 58.2372L176.093 50.4023H172.561C172.821 49.3611 173.128 47.9901 173.505 46.2847L173.944 44.1787H177.721C177.936 43.4877 178.316 41.9707 178.864 39.6276L182.887 38.8361C183.623 38.6979 185.197 38.3509 187.608 37.7949C187.149 39.7674 186.695 41.8953 186.248 44.1787H191.442C190.765 47.3196 190.339 49.3941 190.162 50.4023H184.889L183.614 56.0559C183.434 56.9039 183.326 57.4692 183.283 57.686C183.161 58.2825 183.132 58.8945 183.198 59.4998C183.219 59.7123 183.289 59.917 183.403 60.0977C183.517 60.2784 183.672 60.4302 183.855 60.541C184.243 60.7587 184.684 60.8677 185.129 60.8567C185.513 60.8568 185.897 60.8301 186.277 60.7766C187.01 60.6558 187.737 60.4954 188.453 60.296Z" fill="#F4A519"/>
<path d="M222.933 43.3639C223.135 42.3388 223.135 41.2844 222.933 40.2592C222.905 40.132 222.867 40.0095 222.83 39.887C222.639 39.3325 222.349 38.817 221.975 38.3653C221.473 37.8218 220.864 37.3872 220.186 37.0885C219.331 36.7169 218.426 36.4755 217.499 36.3724C216.739 36.2734 196.159 36.5938 193.42 36.6362C193.293 37.3382 193.175 37.9177 193.076 38.3605C192.943 38.9306 192.844 39.364 192.778 39.6656L192.127 42.4499H194.539C194.714 42.4499 195.243 42.4499 196.14 42.5065C195.872 43.8916 195.539 45.5343 195.139 47.4345C195.073 47.7643 194.997 48.1082 194.926 48.4568C194.454 50.7308 194.023 52.7614 193.633 54.5485C193.245 56.32 192.906 57.8464 192.599 59.142C192.344 60.2445 192.004 61.5919 191.598 63.1702C191.281 64.5836 190.989 65.9404 190.771 66.9392L195.082 66.8968L201.092 66.8261L207.792 66.746C209.591 66.746 210.927 66.7083 211.791 66.6283H211.923C212.956 66.4486 213.963 66.1432 214.921 65.719C215.843 65.3309 216.697 64.7963 217.447 64.136C218.271 63.391 218.963 62.5116 219.492 61.5354C220.049 60.5251 220.435 59.4299 220.634 58.294C220.777 57.5171 220.807 56.7238 220.724 55.9384C220.647 55.2284 220.432 54.5403 220.091 53.9125C219.788 53.3409 219.372 52.8362 218.868 52.4284L218.656 52.273C218.335 52.0506 217.99 51.8657 217.627 51.7218C217.012 51.5101 216.38 51.3524 215.738 51.2506L215.974 51.1847L215.606 51.114C216.301 50.9375 216.983 50.7107 217.646 50.4356C218.22 50.1784 218.766 49.8627 219.274 49.4933C219.879 49.058 220.424 48.5447 220.894 47.9669C221.42 47.3292 221.858 46.6241 222.197 45.8703C222.55 45.0702 222.798 44.2277 222.933 43.3639ZM211.574 57.2905C211.483 57.8364 211.291 58.3605 211.007 58.8358C210.746 59.2707 210.393 59.6437 209.973 59.9288C209.469 60.2436 208.913 60.4669 208.33 60.5884C207.471 60.7452 206.597 60.8115 205.724 60.7863H201.314V60.7344H201.22L202.636 54.214H207.419C208.171 54.1903 208.922 54.2472 209.662 54.3836C210.077 54.4713 210.464 54.6626 210.785 54.9396L210.908 55.0338C211.199 55.2802 211.408 55.6087 211.508 55.976C211.625 56.4042 211.648 56.8527 211.574 57.2905ZM213.359 45.093C213.282 45.4748 213.141 45.841 212.943 46.1766C212.87 46.3432 212.778 46.5013 212.669 46.6477C212.506 46.8724 212.316 47.0765 212.103 47.2555C211.744 47.5583 211.328 47.7858 210.88 47.9245C210.431 48.0249 209.975 48.0864 209.515 48.1082C209.043 48.1553 208.326 48.1365 207.254 48.1365L204.072 48.1741V48.1129H203.991L205.346 42.0448H209.43C210.323 42.0039 211.216 42.1106 212.074 42.3604C212.312 42.4353 212.532 42.5573 212.721 42.7193C212.91 42.8812 213.064 43.0797 213.174 43.3027C213.237 43.4547 213.285 43.6125 213.316 43.7738C213.441 44.203 213.456 44.6567 213.359 45.093Z" fill="#F4A519"/>
<path d="M246.809 60.1181C246.457 61.0227 245.692 63.2103 244.515 66.6809C242.702 67.0296 241.186 67.2604 239.968 67.3735C238.75 67.4866 237.53 67.5431 236.309 67.5431C234.668 67.5548 233.028 67.4287 231.408 67.1662C230.105 66.9804 228.854 66.5315 227.73 65.847C226.773 65.2521 225.966 64.4462 225.37 63.4914C224.772 62.4591 224.404 61.31 224.293 60.1228C224.138 58.789 224.181 57.4396 224.421 56.1182C224.792 54.1191 225.523 52.2036 226.578 50.4647C227.527 48.7856 228.801 47.312 230.327 46.1303C231.704 45.1014 233.267 44.3478 234.93 43.9113C236.559 43.4786 238.236 43.2584 239.921 43.2564C241.55 43.2438 243.174 43.445 244.751 43.8547C246.136 44.187 247.394 44.9138 248.372 45.9466C249.255 46.8861 249.854 48.0554 250.1 49.3198C250.348 50.6591 250.348 52.0323 250.1 53.3715C249.915 54.3506 249.647 55.312 249.298 56.2454H233.391C233.33 56.4857 233.287 56.7166 233.25 56.8956C232.966 58.521 233.335 59.7224 234.364 60.4809C235.556 61.2975 236.984 61.7014 238.429 61.6304C239.595 61.6131 240.758 61.4964 241.904 61.2818C243.201 61.0619 244.836 60.674 246.809 60.1181ZM234.151 52.8062H241.635C241.696 52.5471 241.743 52.3351 241.776 52.1466C241.92 51.4807 241.897 50.79 241.71 50.1349C241.635 49.8756 241.51 49.6338 241.34 49.4235C241.171 49.2133 240.961 49.0387 240.724 48.91C240.201 48.643 239.62 48.5102 239.033 48.5236C238.575 48.5262 238.119 48.5993 237.683 48.7404C237.232 48.8852 236.807 49.0999 236.422 49.3764C236.042 49.6434 235.699 49.9604 235.403 50.3186C235.137 50.6433 234.908 50.9955 234.718 51.3692C234.502 51.8372 234.313 52.317 234.151 52.8062Z" fill="#F4A519"/>
<path d="M274.307 60.1181C273.948 61.0227 273.183 63.2103 272.012 66.6809C270.196 67.0296 268.68 67.2604 267.465 67.3735C266.252 67.4866 265.029 67.5431 263.806 67.5431C262.165 67.5548 260.526 67.4287 258.906 67.1662C257.601 66.9794 256.348 66.5307 255.223 65.847C254.267 65.2512 253.459 64.4455 252.862 63.4914C252.259 62.4635 251.885 61.3176 251.767 60.1322C251.61 58.7985 251.653 57.4488 251.894 56.1276C252.263 54.1279 252.994 52.212 254.052 50.4741C255.004 48.7903 256.283 47.3134 257.815 46.1303C259.19 45.1023 260.752 44.3489 262.414 43.9113C264.043 43.4785 265.722 43.2584 267.409 43.2564C269.038 43.2438 270.662 43.445 272.239 43.8547C273.62 44.1888 274.873 44.9174 275.846 45.9513C276.732 46.8893 277.333 48.0591 277.579 49.3246C277.824 50.664 277.824 52.0368 277.579 53.3763C277.391 54.3548 277.123 55.316 276.776 56.2501H260.865C260.808 56.4904 260.761 56.7213 260.728 56.9003C260.438 58.5241 260.81 59.7192 261.842 60.4856C263.033 61.3013 264.46 61.705 265.903 61.6351C267.069 61.6182 268.231 61.5016 269.378 61.2865C270.69 61.0635 272.333 60.674 274.307 60.1181ZM261.644 52.8062H269.146C269.208 52.5471 269.255 52.3351 269.283 52.1466C269.428 51.4811 269.407 50.7904 269.222 50.1349C269.143 49.8728 269.012 49.6292 268.837 49.4188C268.662 49.2083 268.446 49.0352 268.202 48.91C267.679 48.643 267.099 48.5102 266.512 48.5236C266.052 48.5262 265.595 48.5993 265.157 48.7404C264.707 48.8843 264.283 49.099 263.901 49.3764C263.518 49.6411 263.175 49.9583 262.881 50.3186C262.614 50.6421 262.384 50.9945 262.196 51.3692C261.983 51.8365 261.799 52.3164 261.644 52.8062Z" fill="#F4A519"/>
<path d="M278.117 66.9525L280.596 56.8987L281.842 51.1273C282.04 50.0877 282.236 49.023 282.428 47.9331C282.62 46.8432 282.846 45.4785 283.107 43.839C284.93 43.8672 286.379 43.8814 287.456 43.8814C288.715 43.8814 290.161 43.8672 291.795 43.839L291.252 46.3972C291.795 45.8708 292.367 45.3754 292.966 44.9131C293.421 44.5758 293.906 44.2809 294.415 44.0321C294.937 43.771 295.489 43.5733 296.058 43.4432C296.612 43.3126 297.179 43.2478 297.748 43.2501C298.347 43.2568 298.943 43.3326 299.524 43.4762C299.234 45.1189 299.023 46.4741 298.891 47.542L298.419 51.0284C297.684 50.7957 296.919 50.6734 296.148 50.6656C295.325 50.6514 294.506 50.7855 293.731 51.0614C293.022 51.3364 292.37 51.7406 291.809 52.2533C291.175 52.826 290.645 53.5033 290.241 54.2556C289.653 55.4656 289.214 56.7422 288.934 58.0576C288.506 59.7945 288.095 61.7795 287.701 64.0127C287.56 64.7948 287.418 65.7684 287.276 66.9337C285.813 66.8991 284.34 66.8834 282.857 66.8866C281.375 66.8897 279.795 66.9117 278.117 66.9525Z" fill="#F4A519"/>
</g>
<defs>
<clipPath id="clip0_96_11739">
<rect width="299" height="103" fill="white" transform="translate(0.5)"/>
</clipPath>
</defs>
</svg>
