<svg width="58" height="64" viewBox="0 0 58 64" fill="none" xmlns="http://www.w3.org/2000/svg">
<path d="M35.5582 15.51C36.444 12.4977 37.0346 10.4778 37.8082 8.01581C33.3288 7.10831 32.3957 7 28.5304 7C23.233 7 18.7054 7.86846 14.9474 9.60539C11.3177 11.2348 8.10518 13.6542 5.54851 16.6838C3.14636 19.4821 1.43474 22.7967 0.549361 26.3648C0.39376 27.0039 0.272523 27.6508 0.186162 28.3027C-0.0195495 29.6819 -0.0542571 31.0808 0.0828129 32.4684C0.215853 34.2683 0.759024 36.0149 1.67144 37.5767C2.57322 39.0433 3.87267 40.2291 5.42154 40.9988C7.04264 41.8331 8.59583 42.1698 10.8105 42.565C13.0251 42.9602 15.6 42.9748 17.9977 42.9748C19.2674 42.9748 20.859 42.8402 22.4564 42.7348C21.9279 44.5995 19.4593 53.0626 18.3225 56.9941L23.3009 56.9473L30.249 56.8683L37.9824 56.7775C40.4274 56.7482 42.1371 56.7277 43.0938 56.5843C44.3114 56.3832 45.5007 56.0402 46.6372 55.5626C48.9794 54.6241 50.9491 52.954 52.2476 50.8056C52.9579 49.6739 53.4775 48.435 53.786 47.1376C54.0077 46.2597 54.0953 45.3539 54.0458 44.4502C54.0111 43.652 53.81 42.8696 53.4553 42.1522C53.139 41.5041 52.6858 40.9311 52.1265 40.4719C51.6537 40.0728 51.1206 39.7497 50.5467 39.5146C49.8578 39.2769 49.148 39.1034 48.4266 38.9965C49.2496 38.7941 50.0584 38.5389 50.8479 38.2324C53.2671 37.1974 55.2497 35.3633 56.4583 33.0422C56.603 32.7728 56.727 32.5064 56.854 32.2283C57.1288 31.5856 57.3472 30.9206 57.5066 30.2406C57.8021 29.0934 57.8664 27.8996 57.6956 26.7277C57.5657 25.8308 57.2114 24.9804 56.665 24.2541C56.1276 23.6284 55.457 23.1285 54.7014 22.7904C53.7411 22.3638 52.7202 22.0863 51.6747 21.9678C50.7712 21.8536 25.1317 22.2605 23.5637 22.2781C23.2389 23.3876 23.0086 24.2658 22.8108 24.9128C22.6129 25.5597 22.4771 26.0457 22.3856 26.3765L21.4377 29.5029L26.3187 29.4473C26.0707 30.3841 24.547 35.5656 24.547 35.5656H19.0134C17.1236 35.5656 15.7919 35.4836 14.4218 34.7605C13.787 34.4479 13.2263 34.0056 12.7764 33.4627C12.3265 32.9198 11.9976 32.2886 11.8115 31.6107C11.568 30.6617 11.495 29.6777 11.5959 28.7037C11.6479 28.0961 11.7466 27.4932 11.8912 26.9005C12.3158 25.1526 13.0281 23.486 13.9995 21.9678C14.9926 20.4121 16.2658 19.0506 17.7555 17.9514C19.2765 16.8233 20.9913 15.9782 22.8167 15.4573C24.6703 14.923 26.5912 14.6529 28.5216 14.6552C29.2598 14.6552 30.0905 14.6961 31.0137 14.7781C31.938 14.8601 32.9065 14.9947 33.9134 15.1792L35.5582 15.51ZM43.1499 45.9578C43.0044 46.5924 42.7399 47.1941 42.3703 47.7318C42.035 48.2316 41.6011 48.6588 41.0947 48.9877C40.4893 49.3434 39.8289 49.5976 39.1399 49.74C38.1427 49.9189 37.1293 49.9945 36.1162 49.9655H31.0256L33.1634 42.603L38.8151 42.5708C39.6555 42.5406 40.4966 42.6054 41.3221 42.764C41.7963 42.8599 42.237 43.0768 42.6007 43.3934C42.9149 43.6764 43.1292 44.052 43.2119 44.4649C43.3043 44.9608 43.2831 45.4711 43.1499 45.9578ZM44.5879 34.4327C44.15 34.7786 43.6486 35.0371 43.1115 35.1938C42.5893 35.3111 42.0577 35.3826 41.5229 35.4075C40.9825 35.4602 40.1498 35.4397 38.9126 35.4397L35.2363 35.4807C35.3898 34.945 36.6832 30.4163 37.008 29.3331L41.3162 29.2834C42.7276 29.2834 45.394 28.9555 46.1175 30.1967C46.4128 30.6944 46.339 31.3413 46.1943 31.9824C46.0702 32.4224 45.879 32.841 45.6273 33.2237C45.526 33.4055 45.4084 33.5779 45.2759 33.7389C45.0752 33.9964 44.8442 34.2293 44.5879 34.4327Z" fill="#F4A519"/>
</svg>
