<svg width="188" height="64" viewBox="0 0 188 64" fill="none" xmlns="http://www.w3.org/2000/svg">
<g clip-path="url(#clip0_301_861)">
<path d="M36.0581 15.51C36.944 12.4977 37.5345 10.4778 38.3082 8.01581C33.8287 7.10831 32.8956 7 29.0304 7C23.733 7 19.2053 7.86846 15.4473 9.60539C11.8177 11.2348 8.60514 13.6542 6.04848 16.6838C3.64632 19.4821 1.93471 22.7967 1.04933 26.3648C0.89373 27.0039 0.772493 27.6508 0.686132 28.3027C0.48042 29.6819 0.445712 31.0808 0.582782 32.4684C0.715823 34.2683 1.25899 36.0149 2.17141 37.5767C3.07319 39.0433 4.37264 40.2291 5.92151 40.9988C7.54261 41.8331 9.0958 42.1698 11.3104 42.565C13.5251 42.9602 16.0999 42.9748 18.4976 42.9748C19.7673 42.9748 21.3589 42.8402 22.9564 42.7348C22.4278 44.5995 19.9593 53.0626 18.8224 56.9941L23.8009 56.9473L30.7489 56.8683L38.4824 56.7775C40.9274 56.7482 42.637 56.7277 43.5938 56.5843C44.8113 56.3832 46.0007 56.0402 47.1372 55.5626C49.4794 54.6241 51.4491 52.954 52.7475 50.8056C53.4579 49.6739 53.9775 48.435 54.286 47.1376C54.5077 46.2597 54.5953 45.3539 54.5458 44.4502C54.5111 43.652 54.31 42.8696 53.9553 42.1522C53.639 41.5041 53.1858 40.9311 52.6265 40.4719C52.1537 40.0728 51.6206 39.7497 51.0467 39.5146C50.3578 39.2769 49.648 39.1034 48.9266 38.9965C49.7495 38.7941 50.5584 38.5389 51.3479 38.2324C53.7671 37.1974 55.7497 35.3633 56.9583 33.0422C57.103 32.7728 57.227 32.5064 57.354 32.2283C57.6288 31.5856 57.8471 30.9206 58.0065 30.2406C58.3021 29.0934 58.3663 27.8996 58.1955 26.7277C58.0657 25.8308 57.7114 24.9804 57.165 24.2541C56.6276 23.6284 55.9569 23.1285 55.2013 22.7904C54.241 22.3638 53.2202 22.0863 52.1747 21.9678C51.2711 21.8536 25.6317 22.2605 24.0637 22.2781C23.7389 23.3876 23.5086 24.2658 23.3107 24.9128C23.1129 25.5597 22.9771 26.0457 22.8855 26.3765L21.9377 29.5029L26.8187 29.4473C26.5707 30.3841 25.047 35.5656 25.047 35.5656H19.5134C17.6236 35.5656 16.2919 35.4836 14.9217 34.7605C14.287 34.4479 13.7262 34.0056 13.2763 33.4627C12.8264 32.9198 12.4976 32.2886 12.3114 31.6107C12.068 30.6617 11.995 29.6777 12.0959 28.7037C12.1478 28.0961 12.2465 27.4932 12.3912 26.9005C12.8157 25.1526 13.5281 23.486 14.4995 21.9678C15.4926 20.4121 16.7657 19.0506 18.2555 17.9514C19.7764 16.8233 21.4913 15.9782 23.3166 15.4573C25.1703 14.923 27.0911 14.6529 29.0215 14.6552C29.7597 14.6552 30.5905 14.6961 31.5137 14.7781C32.438 14.8601 33.4065 14.9947 34.4134 15.1792L36.0581 15.51ZM43.6499 45.9578C43.5043 46.5924 43.2399 47.1941 42.8703 47.7318C42.535 48.2316 42.1011 48.6588 41.5947 48.9877C40.9893 49.3434 40.3288 49.5976 39.6399 49.74C38.6426 49.9189 37.6293 49.9945 36.6162 49.9655H31.5255L33.6634 42.603L39.3151 42.5708C40.1554 42.5406 40.9965 42.6054 41.8221 42.764C42.2963 42.8599 42.737 43.0768 43.1006 43.3934C43.4149 43.6764 43.6292 44.052 43.7119 44.4649C43.8043 44.9608 43.7831 45.4711 43.6499 45.9578ZM45.0879 34.4327C44.65 34.7786 44.1486 35.0371 43.6115 35.1938C43.0893 35.3111 42.5577 35.3826 42.0229 35.4075C41.4825 35.4602 40.6498 35.4397 39.4125 35.4397L35.7363 35.4807C35.8898 34.945 37.1832 30.4163 37.508 29.3331L41.8162 29.2834C43.2276 29.2834 45.894 28.9555 46.6175 30.1967C46.9127 30.6944 46.8389 31.3413 46.6942 31.9824C46.5701 32.4224 46.3789 32.841 46.1273 33.2237C46.026 33.4055 45.9084 33.5779 45.7759 33.7389C45.5752 33.9964 45.3442 34.2293 45.0879 34.4327Z" fill="#F4A519"/>
<path d="M80.259 32.0237C80.1822 32.3691 80.1202 32.6355 80.0848 32.8199L79.7275 34.3832H81.074C81.1862 34.3832 81.5494 34.3832 82.1606 34.4241H82.3437C82.2462 34.9335 81.6055 37.7936 81.6055 37.7936L79.4263 37.8346C79.1487 37.855 78.88 37.8346 78.6261 37.8346C78.305 37.8349 77.9842 37.8124 77.6664 37.7672C77.1183 37.7437 76.5816 37.6039 76.0925 37.3574C75.6898 37.1588 75.3345 36.8774 75.0502 36.5319C74.7848 36.2372 74.5838 35.8914 74.4596 35.5161C74.2119 34.678 74.1753 33.7924 74.3533 32.937C74.522 31.9879 74.8526 31.0742 75.3307 30.235C75.8089 29.3863 76.4499 28.6385 77.2176 28.0336C77.9996 27.4163 78.8937 26.9532 79.8515 26.6695C80.8337 26.374 81.8547 26.225 82.8811 26.2274C83.2797 26.2274 83.7256 26.2508 84.2246 26.2977C84.7237 26.3445 85.2434 26.4177 85.7867 26.5143C86.1735 26.5846 86.5219 26.6607 86.8349 26.7397C87.1716 25.2116 87.4078 24.146 87.7208 22.8668C85.2611 22.375 84.768 22.3164 82.6567 22.3164C79.7865 22.3164 77.3652 22.7877 75.3927 23.7303C73.4995 24.6058 71.8466 25.9201 70.5737 27.5623C69.373 29.0946 68.5709 30.8962 68.238 32.8082C68.1768 33.1559 68.1354 33.5068 68.114 33.8591C68.0992 34.0436 68.0933 34.228 68.0874 34.4124C68.0874 34.4417 68.0874 34.471 68.0874 34.5002C68.0874 34.632 68.0874 34.7608 68.0874 34.8896C68.0874 34.9569 68.0874 35.0272 68.0874 35.0945C68.0874 35.2204 68.1022 35.3433 68.114 35.4663C68.114 35.5043 68.114 35.5424 68.114 35.5805C68.1317 35.7385 68.1524 35.8995 68.1789 36.0576C68.1967 36.1601 68.2173 36.2567 68.238 36.3504C68.2705 36.5143 68.303 36.6812 68.3413 36.8363C68.3679 36.9358 68.4004 37.0266 68.4299 37.1291C68.4742 37.2754 68.5156 37.4218 68.5687 37.5623C68.6041 37.6589 68.6484 37.7467 68.6868 37.8404C68.7252 37.9341 68.7961 38.1039 68.861 38.2268C68.926 38.3498 68.9703 38.423 69.0264 38.5196C69.0825 38.6162 69.1504 38.7421 69.2213 38.8474C69.2922 38.9528 69.3128 38.9821 69.3601 39.0465L69.3866 39.0846C69.8925 39.7474 70.5451 40.2862 71.2942 40.6595C71.7407 40.8854 72.2048 41.0753 72.682 41.2274C73.2428 41.3786 73.8116 41.4988 74.3858 41.5875C75.6809 41.7655 76.9882 41.8408 78.2953 41.8129C78.9834 41.8129 79.8338 41.8539 80.696 41.8129C80.696 41.8656 80.7108 41.7397 80.696 41.8129C80.7698 41.8129 82.763 41.7251 83.4953 41.6372C84.2276 41.5494 85.1518 41.406 86.2739 41.2069C86.516 40.0067 86.9097 38.2298 87.455 35.8761C87.9885 33.5635 88.4305 31.768 88.7809 30.4897C84.9806 30.5395 80.9529 30.601 80.5129 30.6097C80.4332 31.1952 80.3417 31.6695 80.259 32.0237Z" fill="#F4A519"/>
<path d="M104.363 37.3545C104.139 37.9165 103.66 39.2758 102.928 41.4324C101.79 41.649 100.842 41.7924 100.084 41.8627C99.3254 41.9329 98.5606 41.9681 97.7959 41.9681C96.7684 41.9753 95.7421 41.8969 94.7279 41.7339C93.913 41.6178 93.1305 41.339 92.4276 40.9142C91.8343 40.543 91.3344 40.0424 90.966 39.4505C90.5886 38.8118 90.3549 38.0998 90.2809 37.3633C90.1813 36.5346 90.2081 35.6957 90.3606 34.875C90.5912 33.6324 91.0485 32.442 91.7101 31.3621C92.3017 30.316 93.0989 29.3982 94.0546 28.663C94.9146 28.0238 95.8912 27.5556 96.9307 27.2842C97.9499 27.0153 99 26.8785 100.055 26.8773C101.073 26.8693 102.087 26.9943 103.073 27.2491C103.935 27.4562 104.718 27.9079 105.326 28.5489C105.88 29.1317 106.255 29.8586 106.409 30.6449C106.558 31.4781 106.552 32.3313 106.392 33.1624C106.277 33.7711 106.109 34.3686 105.89 34.9482H95.9415C95.906 35.0975 95.8765 35.2409 95.8558 35.3521C95.6747 36.3611 95.907 37.1037 96.5527 37.5799C97.2977 38.0867 98.1897 38.3376 99.0922 38.2942C99.8215 38.2837 100.549 38.2112 101.265 38.0775C102.096 37.9409 103.129 37.6999 104.363 37.3545ZM96.4435 32.8112H101.127C101.165 32.6501 101.195 32.5184 101.212 32.4013C101.303 31.9878 101.29 31.5586 101.174 31.1513C101.078 30.8265 100.856 30.5528 100.557 30.3902C100.23 30.2243 99.8667 30.1418 99.4996 30.1501C99.2119 30.1517 98.926 30.1971 98.6522 30.2848C98.3708 30.3743 98.1057 30.5077 97.8667 30.68C97.6274 30.8445 97.4127 31.0416 97.2289 31.2655C97.0619 31.4665 96.9183 31.6855 96.8008 31.9183C96.6633 32.2084 96.544 32.5066 96.4435 32.8112Z" fill="#F4A519"/>
<path d="M118.049 37.4656C117.74 38.2463 117.457 39.0152 117.199 39.7724L116.582 41.4879C115.598 41.6948 114.844 41.8265 114.32 41.8831C113.808 41.9378 113.293 41.9661 112.779 41.968C112.071 41.9767 111.365 41.908 110.673 41.7631C110.133 41.6589 109.636 41.3992 109.244 41.0166C108.905 40.6798 108.684 40.2435 108.615 39.7724C108.548 39.2769 108.56 38.7738 108.653 38.2824C108.668 38.1887 108.704 38.0218 108.754 37.7818C108.804 37.5418 108.934 37.0119 109.138 36.1864L110.319 31.3181H108.11C108.273 30.6711 108.464 29.8193 108.701 28.7596L108.975 27.451H111.338C111.471 27.0217 111.71 26.079 112.052 24.6231L114.568 24.1313C115.029 24.0455 116.013 23.8298 117.521 23.4844C117.233 24.71 116.95 26.0322 116.67 27.451H119.918C119.495 29.4026 119.229 30.6916 119.118 31.3181H115.82L115.023 34.831C114.91 35.3579 114.843 35.7092 114.816 35.8439C114.739 36.2145 114.721 36.5948 114.763 36.9709C114.776 37.1029 114.82 37.2301 114.891 37.3424C114.962 37.4547 115.059 37.549 115.173 37.6179C115.416 37.7531 115.692 37.8209 115.971 37.814C116.211 37.8141 116.45 37.7975 116.688 37.7642C117.147 37.6892 117.601 37.5895 118.049 37.4656Z" fill="#F4A519"/>
<path d="M139.614 26.9449C139.74 26.3079 139.74 25.6527 139.614 25.0157C139.596 24.9367 139.573 24.8605 139.549 24.7844C139.43 24.4399 139.249 24.1196 139.014 23.8389C138.7 23.5012 138.319 23.2312 137.895 23.0456C137.361 22.8146 136.795 22.6647 136.215 22.6006C135.74 22.5391 122.868 22.7382 121.156 22.7645C121.076 23.2007 121.002 23.5608 120.94 23.836C120.858 24.1902 120.796 24.4595 120.754 24.6468L120.347 26.3769H121.856C121.965 26.3769 122.296 26.3769 122.857 26.4121C122.689 27.2727 122.481 28.2934 122.231 29.4741C122.189 29.679 122.142 29.8927 122.098 30.1094C121.802 31.5223 121.533 32.784 121.289 33.8945C121.046 34.9952 120.834 35.9437 120.642 36.7487C120.482 37.4337 120.27 38.271 120.016 39.2516C119.818 40.1299 119.635 40.973 119.499 41.5936L122.195 41.5672L125.954 41.5233L130.144 41.4735C131.269 41.4735 132.105 41.4501 132.645 41.4004H132.728C133.374 41.2887 134.004 41.099 134.603 40.8354C135.18 40.5943 135.713 40.2621 136.183 39.8518C136.698 39.3889 137.131 38.8424 137.461 38.2358C137.81 37.6081 138.051 36.9276 138.176 36.2218C138.265 35.7391 138.284 35.2461 138.232 34.7581C138.184 34.317 138.05 33.8894 137.836 33.4993C137.646 33.1442 137.386 32.8305 137.072 32.5772L136.939 32.4806C136.738 32.3424 136.522 32.2275 136.295 32.1381C135.911 32.0065 135.515 31.9086 135.114 31.8453L135.261 31.8043L135.031 31.7604C135.466 31.6508 135.892 31.5099 136.307 31.3389C136.666 31.1791 137.007 30.9829 137.325 30.7534C137.704 30.4829 138.044 30.164 138.338 29.8049C138.667 29.4087 138.941 28.9706 139.153 28.5022C139.374 28.005 139.529 27.4815 139.614 26.9449ZM132.509 35.5982C132.453 35.9374 132.333 36.2631 132.155 36.5584C131.992 36.8287 131.771 37.0604 131.508 37.2376C131.193 37.4332 130.845 37.5719 130.481 37.6474C129.943 37.7448 129.397 37.7861 128.851 37.7704H126.093V37.7382H126.034L126.92 33.6867H129.911C130.381 33.6719 130.851 33.7073 131.313 33.792C131.573 33.8465 131.815 33.9654 132.016 34.1375L132.093 34.196C132.275 34.3492 132.406 34.5533 132.468 34.7815C132.541 35.0476 132.555 35.3262 132.509 35.5982ZM133.626 28.0192C133.577 28.2564 133.49 28.484 133.366 28.6925C133.32 28.7961 133.262 28.8943 133.194 28.9852C133.092 29.1249 132.973 29.2517 132.84 29.3629C132.616 29.5511 132.356 29.6924 132.075 29.7786C131.795 29.841 131.509 29.8792 131.222 29.8927C130.927 29.922 130.478 29.9103 129.808 29.9103L127.817 29.9337V29.8957H127.767L128.615 26.1252H131.169C131.727 26.0998 132.286 26.1661 132.822 26.3213C132.971 26.3678 133.109 26.4437 133.227 26.5443C133.345 26.6449 133.442 26.7682 133.51 26.9068C133.55 27.0012 133.579 27.0993 133.599 27.1995C133.677 27.4662 133.686 27.7481 133.626 28.0192Z" fill="#F4A519"/>
<path d="M154.546 37.3545C154.326 37.9165 153.848 39.2758 153.111 41.4323C151.977 41.649 151.03 41.7924 150.268 41.8627C149.506 41.9329 148.743 41.968 147.979 41.968C146.953 41.9753 145.927 41.897 144.914 41.7339C144.099 41.6184 143.317 41.3395 142.614 40.9142C142.016 40.5445 141.51 40.0438 141.138 39.4505C140.764 38.8091 140.534 38.0951 140.464 37.3574C140.367 36.5286 140.394 35.6901 140.544 34.8691C140.776 33.6269 141.233 32.4367 141.893 31.3562C142.487 30.3129 143.284 29.3973 144.238 28.663C145.099 28.0237 146.077 27.5555 147.117 27.2842C148.135 27.0153 149.184 26.8786 150.238 26.8773C151.257 26.8695 152.273 26.9945 153.259 27.2491C154.125 27.4555 154.912 27.9071 155.524 28.5488C156.076 29.1326 156.451 29.8592 156.604 30.6449C156.759 31.477 156.759 32.3303 156.604 33.1624C156.489 33.7708 156.321 34.3682 156.103 34.9481H146.154C146.116 35.0974 146.089 35.2409 146.066 35.3521C145.889 36.3621 146.119 37.1086 146.763 37.5799C147.509 38.0873 148.402 38.3382 149.305 38.2942C150.034 38.2834 150.761 38.2109 151.478 38.0775C152.289 37.9409 153.312 37.6999 154.546 37.3545ZM146.63 32.8111H151.31C151.348 32.6501 151.378 32.5184 151.399 32.4013C151.488 31.9876 151.474 31.5583 151.357 31.1513C151.31 30.9902 151.232 30.84 151.126 30.7093C151.02 30.5786 150.889 30.4702 150.74 30.3902C150.413 30.2243 150.05 30.1418 149.683 30.1501C149.396 30.1517 149.111 30.1971 148.839 30.2848C148.557 30.3748 148.29 30.5082 148.05 30.68C147.812 30.8459 147.598 31.0429 147.412 31.2655C147.246 31.4672 147.103 31.6861 146.984 31.9183C146.849 32.2091 146.731 32.5072 146.63 32.8111Z" fill="#F4A519"/>
<path d="M171.744 37.3545C171.519 37.9165 171.041 39.2758 170.309 41.4323C169.173 41.649 168.225 41.7924 167.465 41.8627C166.706 41.9329 165.941 41.968 165.177 41.968C164.15 41.9753 163.125 41.897 162.112 41.7339C161.296 41.6178 160.512 41.339 159.808 40.9142C159.21 40.5439 158.705 40.0433 158.332 39.4505C157.955 38.8118 157.721 38.0998 157.647 37.3632C157.549 36.5345 157.576 35.6959 157.727 34.875C157.957 33.6324 158.415 32.442 159.076 31.3621C159.671 30.3158 160.471 29.3981 161.429 28.663C162.29 28.0243 163.266 27.5561 164.305 27.2842C165.325 27.0153 166.375 26.8785 167.43 26.8773C168.449 26.8695 169.464 26.9945 170.45 27.2491C171.314 27.4566 172.098 27.9093 172.706 28.5518C173.26 29.1346 173.636 29.8615 173.79 30.6478C173.943 31.4801 173.943 32.3331 173.79 33.1654C173.673 33.7734 173.505 34.3707 173.288 34.9511H163.337C163.302 35.1004 163.272 35.2438 163.251 35.3551C163.07 36.364 163.303 37.1066 163.948 37.5828C164.693 38.0896 165.585 38.3405 166.488 38.2971C167.217 38.2866 167.944 38.2141 168.661 38.0805C169.482 37.9419 170.509 37.6999 171.744 37.3545ZM163.824 32.8111H168.516C168.555 32.6501 168.584 32.5184 168.602 32.4013C168.692 31.9878 168.679 31.5586 168.563 31.1513C168.514 30.9884 168.432 30.8371 168.323 30.7063C168.213 30.5756 168.078 30.468 167.926 30.3902C167.599 30.2243 167.236 30.1418 166.869 30.1501C166.581 30.1517 166.295 30.1971 166.021 30.2848C165.74 30.3742 165.475 30.5077 165.236 30.68C164.996 30.8445 164.782 31.0416 164.598 31.2655C164.431 31.4665 164.287 31.6854 164.17 31.9183C164.036 32.2086 163.921 32.5068 163.824 32.8111Z" fill="#F4A519"/>
<path d="M174.127 41.6018L175.677 35.3547L176.456 31.7687C176.58 31.1227 176.702 30.4611 176.823 29.7839C176.943 29.1067 177.084 28.2587 177.248 27.24C178.388 27.2575 179.294 27.2663 179.967 27.2663C180.755 27.2663 181.659 27.2575 182.681 27.24L182.341 28.8296C182.681 28.5025 183.039 28.1946 183.413 27.9074C183.698 27.6978 184.001 27.5146 184.32 27.36C184.646 27.1977 184.991 27.0749 185.347 26.9941C185.694 26.9129 186.049 26.8726 186.404 26.8741C186.779 26.8782 187.151 26.9254 187.515 27.0146C187.334 28.0353 187.202 28.8774 187.119 29.5409L186.824 31.7072C186.364 31.5626 185.886 31.4866 185.403 31.4818C184.889 31.473 184.377 31.5563 183.892 31.7277C183.448 31.8986 183.041 32.1497 182.69 32.4683C182.293 32.8242 181.962 33.245 181.709 33.7125C181.342 34.4643 181.067 35.2575 180.892 36.0749C180.624 37.1541 180.367 38.3875 180.121 39.7751C180.032 40.2611 179.944 40.8661 179.855 41.5901C178.94 41.5686 178.018 41.5589 177.091 41.5608C176.164 41.5628 175.176 41.5764 174.127 41.6018Z" fill="#F4A519"/>
</g>
<defs>
<clipPath id="clip0_301_861">
<rect width="187" height="64" fill="white" transform="translate(0.5)"/>
</clipPath>
</defs>
</svg>
